<svg xmlns="http://www.w3.org/2000/svg" id="Layer_1" data-name="Layer 1" viewBox="0 0 960 960">
  <defs fill="#ffffff">
    <style>
      .cls-1 {
        stroke-width: 0px;
      }
    </style>
  </defs>
  <g>
    <path class="cls-1" d="M724.13,127.78V36.77c0-.31-.09-.61-.27-.86-.17-.25-.42-.45-.71-.56-.29-.11-.61-.13-.91-.06-.3.07-.57.24-.78.46l-168.82,187.97c-12.1,13.47-19.02,30.79-19.53,48.88l-10.37,362.33c0,.34.09.68.3.95s.49.47.81.57c.33.09.68.08.99-.05.32-.13.58-.35.75-.65l21.07-36.51c2.48-4.29,4.09-9.02,4.76-13.93l30.1-220.71c4.38-32.1,18.85-61.98,41.31-85.33l69.26-71.98c20.55-21.36,32.03-49.85,32.03-79.49h0Z" fill="#ffffff"/>
    <path class="cls-1" d="M235,127.78V36.77c0-.31.09-.61.27-.86.17-.25.42-.45.71-.56.29-.11.6-.13.9-.06.3.07.57.24.78.46l168.82,187.97c12.1,13.47,19.02,30.79,19.53,48.88l10.37,362.33c0,.34-.09.68-.3.95s-.49.47-.81.57c-.33.09-.68.08-.99-.05-.32-.13-.58-.35-.75-.65l-21.07-36.51c-2.48-4.29-4.09-9.02-4.76-13.93l-30.11-220.71c-4.38-32.1-18.85-61.98-41.31-85.33l-69.26-71.98c-20.56-21.36-32.04-49.85-32.04-79.49Z" fill="#ffffff"/>
    <path class="cls-1" d="M501.26,239.84l-19.69-17.06c-.56-.48-1.27-.75-2-.75s-1.45.27-2,.75l-19.69,17.06c-1.71,1.49-3.07,3.33-3.99,5.4-.91,2.08-1.35,4.32-1.29,6.59l13.2,461.29c.04,1.27.39,2.51,1.02,3.6l11.42,19.77c.14.24.33.43.56.56s.5.21.76.21.53-.07.76-.21.43-.32.56-.56l11.42-19.78c.63-1.1.98-2.34,1.02-3.6l13.2-461.28c.06-2.27-.38-4.51-1.29-6.59-.91-2.08-2.27-3.92-3.99-5.4h0Z" fill="#ffffff"/>
  </g>
  <path class="cls-1" d="M596.13,838.76c-.13-.18-.3-.32-.49-.42-.19-.1-.41-.15-.63-.15s-.43.05-.63.15c-.19.1-.36.24-.49.42l-62.47,85.64c-.03.05-.05.11-.06.17,0,.06,0,.12.03.17.03.05.07.1.12.13.05.03.11.05.17.05h18.83c1.08,0,2.15-.25,3.11-.75.96-.49,1.8-1.21,2.43-2.08l38.28-52.84c.08-.12.2-.22.33-.28.13-.07.27-.1.42-.1s.29.03.42.1.24.16.32.28l38.28,52.84c.63.87,1.47,1.59,2.43,2.08.97.49,2.03.75,3.11.75h18.69c.06,0,.12-.02.17-.05s.09-.08.12-.13c.03-.05.04-.11.03-.17,0-.06-.03-.12-.06-.17l-62.46-85.64ZM800.42,838.96h-17.53c-.22,0-.43.09-.59.24s-.24.37-.24.59v32.1c0,.13-.03.26-.08.38s-.12.23-.22.32c-.09.09-.2.16-.32.22s-.25.08-.38.08h-79.58c-.13,0-.26-.03-.38-.08-.12-.05-.23-.12-.32-.22s-.17-.2-.22-.32c-.05-.12-.08-.25-.08-.38v-32.1c0-.11-.02-.22-.06-.32s-.1-.19-.18-.27c-.08-.08-.17-.14-.27-.18-.1-.04-.21-.06-.32-.06h-17.52c-.11,0-.22.02-.32.06-.1.04-.19.1-.27.18-.08.08-.14.17-.18.27-.04.1-.06.21-.06.32v84.29c0,.11.02.22.06.32.04.1.1.19.18.27s.17.14.27.18c.1.04.21.06.32.06h17.52c.11,0,.22-.02.32-.06.1-.04.19-.1.27-.18s.14-.17.18-.27c.04-.1.06-.21.06-.32v-32.1c0-.27.11-.52.3-.7.19-.19.44-.29.7-.29h79.58c.27,0,.52.11.7.29.19.19.29.44.29.7v32.1c0,.22.09.43.24.59s.37.24.59.24h17.53c.11,0,.22-.02.32-.06.1-.04.19-.1.27-.18s.14-.17.18-.27c.04-.1.06-.21.06-.32v-84.28c0-.11-.02-.22-.06-.32s-.1-.19-.18-.27c-.08-.08-.17-.14-.27-.18-.1-.04-.21-.06-.32-.06h0ZM545.95,838.96h-19.5c-3.05,0-5.97,1.19-8.16,3.3l-32.44,31.69c-.18.17-.41.27-.66.27s-.48-.1-.66-.27l-32.36-31.68c-2.19-2.12-5.12-3.31-8.17-3.31h-19.57c-.07,0-.14.02-.2.06-.06.04-.1.1-.13.16-.03.06-.03.14-.02.21s.05.13.1.18l50.44,50.43c.62.62.97,1.47.97,2.35v31.72c0,.22.09.43.24.59.16.16.37.24.59.24h17.52c.11,0,.22-.02.32-.06s.19-.1.27-.18.14-.17.18-.27.06-.21.06-.32v-31.72c0-.88.35-1.73.97-2.35l50.43-50.42c.05-.05.08-.11.1-.18.01-.07,0-.14-.02-.21s-.07-.12-.13-.16-.13-.06-.2-.06h0ZM393.14,838.85h-78.17c-5.51,0-10.8,2.19-14.7,6.09-3.9,3.9-6.09,9.19-6.09,14.7v44.36c0,5.51,2.19,10.8,6.09,14.7s9.19,6.09,14.7,6.09h78.17c5.51,0,10.8-2.19,14.7-6.09s6.09-9.19,6.09-14.7v-44.36c0-2.73-.54-5.43-1.58-7.96s-2.58-4.81-4.51-6.75-4.22-3.46-6.75-4.51-5.23-1.58-7.96-1.58h0ZM395.91,897.2c0,2.51-1,4.91-2.77,6.68s-4.18,2.77-6.68,2.77h-64.8c-2.51,0-4.91-1-6.68-2.77-1.77-1.77-2.77-4.18-2.77-6.68v-30.75c0-2.51,1-4.91,2.77-6.68s4.18-2.77,6.68-2.77h64.8c2.51,0,4.91,1,6.68,2.77s2.77,4.18,2.77,6.68v30.75ZM283.73,838.85h-18.68c-1.08,0-2.15.26-3.11.75s-1.8,1.21-2.43,2.08l-37.72,52.06c-.08.12-.2.22-.33.28s-.27.1-.42.1-.29-.03-.42-.1-.24-.16-.33-.28l-37.72-52.06c-.63-.88-1.47-1.59-2.43-2.08s-2.03-.75-3.11-.75h-18.82c-.06,0-.12.02-.17.05-.05.03-.09.08-.12.13-.03.05-.04.11-.03.18,0,.06.03.12.06.17l61.9,84.86c.13.18.3.32.49.42.19.1.41.15.63.15s.43-.05.63-.15.36-.24.49-.42l61.9-84.86c.04-.05.05-.11.06-.17,0-.06,0-.12-.03-.18-.03-.05-.07-.1-.12-.13-.05-.03-.11-.05-.17-.05h0Z" fill="#ffffff"/>
</svg>